<?xml version="1.0" encoding="UTF-8" standalone="no"?>
<!-- Created with Inkscape (http://www.inkscape.org/) -->

<svg
   width="294.49353mm"
   height="232.74529mm"
   viewBox="0 0 294.49353 232.74529"
   version="1.1"
   id="svg5"
   xml:space="preserve"
   inkscape:version="1.2.1 (9c6d41e410, 2022-07-14)"
   sodipodi:docname="gato-contato.svg"
   xmlns:inkscape="http://www.inkscape.org/namespaces/inkscape"
   xmlns:sodipodi="http://sodipodi.sourceforge.net/DTD/sodipodi-0.dtd"
   xmlns="http://www.w3.org/2000/svg"
   xmlns:svg="http://www.w3.org/2000/svg"><sodipodi:namedview
     id="namedview7"
     pagecolor="#505050"
     bordercolor="#eeeeee"
     borderopacity="1"
     inkscape:showpageshadow="0"
     inkscape:pageopacity="0"
     inkscape:pagecheckerboard="0"
     inkscape:deskcolor="#505050"
     inkscape:document-units="mm"
     showgrid="false"
     inkscape:zoom="0.2102413"
     inkscape:cx="-1543.4646"
     inkscape:cy="482.77859"
     inkscape:window-width="3200"
     inkscape:window-height="1261"
     inkscape:window-x="2391"
     inkscape:window-y="-9"
     inkscape:window-maximized="1"
     inkscape:current-layer="layer1" /><defs
     id="defs2" /><g
     inkscape:label="Camada 1"
     inkscape:groupmode="layer"
     id="layer1"
     transform="translate(-513.46834,-20.815612)"><path
       style="fill:#000000;stroke-width:0.352778"
       d="m 573.73943,253.18766 c -20.87197,-1.37165 -33.24614,-5.93773 -44.12574,-16.28243 -8.72322,-8.29433 -13.63112,-17.94616 -15.73275,-30.93983 -0.63289,-3.91296 -0.5158,-15.60614 0.20135,-20.10833 1.86763,-11.72479 5.16305,-21.14431 9.5713,-27.35827 3.90054,-5.49829 7.95446,-6.90617 11.03004,-3.83059 1.14009,1.14009 1.19658,1.30755 0.9641,2.85785 -0.37637,2.50983 -2.0055,7.18146 -4.34376,12.45601 -4.04854,9.1325 -5.4758,15.39059 -5.47107,23.98888 0.005,8.35499 1.48197,14.41979 5.13771,21.09099 4.45445,8.12869 10.77608,13.8281 19.10347,17.22315 8.92636,3.63923 17.65333,5.0505 32.83757,5.31028 10.0937,0.17268 10.27698,0.16303 13.7009,-0.7219 4.32288,-1.11727 10.09496,-3.86053 12.35178,-5.87035 l 1.71101,-1.52375 -0.24861,-9.9049 c -0.82213,-32.75438 5.41991,-55.52462 20.40409,-74.43174 3.25046,-4.10145 10.6116,-11.55727 15.22805,-15.42393 14.57431,-12.20717 35.67466,-24.01226 57.98632,-32.441804 3.41774,-1.291255 3.38685,-1.197092 3.4554,-10.534721 0.0543,-7.40004 0.65209,-14.563281 1.54686,-18.536603 0.76131,-3.380598 0.39085,-6.248294 -2.78239,-21.538681 -3.19602,-15.400214 -3.12158,-20.887496 0.30692,-22.623932 1.50239,-0.760917 4.1521,0.8778 10.74045,6.642464 5.81681,5.089585 7.43083,6.124582 8.76182,5.618543 1.24006,-0.471473 1.48561,-1.069389 2.13342,-5.194935 0.60392,-3.846078 1.59775,-6.908451 2.93023,-9.029153 1.5084,-2.400695 2.04744,-1.70778 3.8272,4.919694 1.24865,4.649724 1.90435,5.750599 3.42817,5.755651 0.63344,0.0021 1.93789,0.242302 2.89879,0.533777 1.05359,0.319596 2.98187,0.513348 4.85788,0.488118 3.49931,-0.04706 3.58193,-0.0071 5.5809,2.698799 1.52788,2.068206 1.94968,2.235115 8.41642,3.330448 2.40597,0.407522 4.89644,0.95903 5.53437,1.225578 1.37223,0.573349 3.00144,2.678071 4.47391,5.77965 l 1.06444,2.242136 -0.75625,3.292225 c -0.41594,1.810723 -0.75625,3.924748 -0.75625,4.697832 0,1.787592 -1.6706,4.286765 -7.9375,11.874306 -6.54113,7.919558 -6.52305,7.88852 -6.52488,11.202532 -7e-4,1.508556 0.54182,6.588556 1.20589,11.288889 0.66407,4.700334 1.39979,10.768567 1.63493,13.484957 0.90132,10.41235 -0.36637,19.97174 -4.49087,33.86462 -1.54523,5.20489 -1.48081,6.34704 0.73143,12.9686 2.11323,6.32518 3.76299,9.85914 5.01633,10.7455 3.42469,2.42192 13.68766,6.76752 26.23967,11.11053 2.8134,0.97344 5.93623,2.31467 6.93962,2.98051 4.08899,2.71343 8.85522,8.8947 12.08509,15.67301 2.29151,4.80906 3.3248,8.54945 3.35385,12.14056 0.0295,3.64225 -0.73687,5.69551 -2.80522,7.51615 -1.76065,1.54978 -3.53378,2.18524 -6.09755,2.18524 -2.23905,0 -3.19938,-0.3612 -4.54923,-1.71106 -1.94979,-1.94978 -3.02343,-5.01537 -3.97149,-11.33992 -0.45946,-3.06508 -1.55698,-5.67137 -3.15435,-7.49068 -0.86051,-0.98006 -1.76854,-1.49326 -3.84489,-2.17305 -3.08845,-1.01116 -11.15712,-2.7674 -21.23916,-4.62296 -11.73888,-2.1605 -13.86915,-2.77847 -22.63003,-6.5648 -5.41031,-2.33826 -7.10907,-2.60128 -8.31311,-1.28712 -1.57772,1.72202 -3.76423,7.07366 -5.78384,14.15635 -1.66516,5.83968 -1.65425,6.5424 0.21431,13.80129 2.34867,9.124 3.63033,12.00324 12.09166,27.16389 7.95261,14.24914 8.76029,16.09654 7.81206,17.86834 -0.96273,1.79886 3.35481,1.7146 -85.06792,1.66016 -45.26321,-0.0279 -84.36049,-0.1863 -86.88285,-0.35207 z m 145.32126,-10.62157 c -0.13592,-0.43656 -1.19994,-2.69875 -2.36449,-5.02708 -3.04098,-6.07992 -6.21193,-13.04086 -7.15258,-15.7015 -1.18609,-3.35486 -1.70322,-5.84775 -3.32909,-16.0485 -1.65296,-10.37058 -2.00219,-12.12851 -2.53771,-12.77377 -0.64333,-0.77515 -3.31014,-0.56434 -4.28022,0.33835 -0.46915,0.43657 -2.24559,3.06497 -3.94765,5.8409 l -3.09464,5.04715 0.96795,1.9768 c 1.41424,2.88826 1.4973,5.11176 0.37653,10.07913 -1.29521,5.74049 -3.13043,11.12987 -5.07091,14.89144 -2.34145,4.53885 -2.03558,5.15984 2.39202,4.85636 1.52032,-0.1042 3.16858,-0.088 3.66281,0.0361 0.49423,0.12405 2.13855,1.21199 3.65405,2.41765 3.90096,3.10343 6.34713,4.50806 7.84997,4.50756 0.69051,-2.3e-4 2.37836,-0.21457 3.75079,-0.47631 2.23686,-0.4266 2.69359,-0.41203 4.40972,0.14062 1.05292,0.33908 2.59979,0.63279 3.43749,0.65269 1.42375,0.0338 1.50696,-0.0156 1.27596,-0.75756 z"
       id="path248" /></g></svg>
